<svg width="218" height="235" viewBox="0 0 218 235" fill="none" xmlns="http://www.w3.org/2000/svg">
<g clip-path="url(#clip0_2_3)">
<path d="M210 215.5L188 228V47L210 59V215.5Z" fill="#1171C1"/>
<path d="M218 137C218 174.286 210 215.5 210 215.5L210 59C210 59 218 99.7143 218 137Z" fill="#1171C1"/>
<path d="M99.0569 42.9186L77.9414 32.9305L80.0637 17.2775L70.6676 18.0023L66.2632 3.6272" stroke="#1171C1" stroke-width="5" stroke-linecap="round" stroke-linejoin="round"/>
<path d="M117.374 42L123.42 29.5L115.208 21.5L128.473 20L141.107 2" stroke="#1171C1" stroke-width="5" stroke-linecap="round" stroke-linejoin="round"/>
<path d="M101.791 34C80.4419 34 67 45 67 45H135C135 45 123.14 34 101.791 34Z" fill="#008CFF"/>
<path d="M97.5 48C54.239 48 7 55 7 55V47H188V55C188 55 140.761 48 97.5 48Z" fill="#008CFF"/>
<path d="M97.5 227C140.761 227 188 220 188 220L188 228L7.00002 228L7.00002 220C7.00002 220 54.239 227 97.5 227Z" fill="#008CFF"/>
<path d="M8 137.5C8 180.761 15 228 15 228L7 228L6.99999 47L15 47C15 47 8 94.239 8 137.5Z" fill="#008CFF"/>
<path d="M-3.95588e-06 137.5C-2.06488e-06 180.761 7.00001 228 7.00001 228L7 47C7 47 -5.84688e-06 94.239 -3.95588e-06 137.5Z" fill="#008CFF"/>
<path d="M193 137.5C193 180.761 188 228 188 228L188 47C188 47 193 94.239 193 137.5Z" fill="#008CFF"/>
<path d="M196 137.5C196 180.761 188 228 188 228L188 47C188 47 196 94.239 196 137.5Z" fill="#008CFF"/>
<path d="M97.5 235C54.239 235 7 228 7 228H188C188 228 140.761 235 97.5 235Z" fill="#008CFF"/>
<path d="M97.5 40C54.239 40 7 47 7 47L188 47C188 47 140.761 40 97.5 40Z" fill="#008CFF"/>
<path d="M187.25 137.5C187.25 180.761 182 228 182 228L188 228L188 47L182 47C182 47 187.25 94.239 187.25 137.5Z" fill="#008CFF"/>
</g>
<defs>
<clipPath id="clip0_2_3">
<rect width="218" height="235" fill="white"/>
</clipPath>
</defs>
</svg>
